<svg width="32" height="32" viewBox="0 0 32 32" fill="none" xmlns="http://www.w3.org/2000/svg">
  <!-- Background circle -->
  <circle cx="16" cy="16" r="15" fill="#18181b" stroke="#10b981" stroke-width="2"/>

  <!-- Neural network nodes -->
  <!-- Input layer -->
  <circle cx="8" cy="10" r="1.5" fill="#10b981"/>
  <circle cx="8" cy="16" r="1.5" fill="#10b981"/>
  <circle cx="8" cy="22" r="1.5" fill="#10b981"/>

  <!-- Hidden layer -->
  <circle cx="16" cy="8" r="1.5" fill="#34d399"/>
  <circle cx="16" cy="14" r="1.5" fill="#34d399"/>
  <circle cx="16" cy="20" r="1.5" fill="#34d399"/>
  <circle cx="16" cy="26" r="1.5" fill="#34d399"/>

  <!-- Output layer -->
  <circle cx="24" cy="12" r="1.5" fill="#10b981"/>
  <circle cx="24" cy="20" r="1.5" fill="#10b981"/>

  <!-- Connections (neural network edges) -->
  <g opacity="0.4" stroke="#10b981" stroke-width="0.5">
    <!-- Input to hidden -->
    <line x1="8" y1="10" x2="16" y2="8"/>
    <line x1="8" y1="10" x2="16" y2="14"/>
    <line x1="8" y1="16" x2="16" y2="14"/>
    <line x1="8" y1="16" x2="16" y2="20"/>
    <line x1="8" y1="22" x2="16" y2="20"/>
    <line x1="8" y1="22" x2="16" y2="26"/>

    <!-- Hidden to output -->
    <line x1="16" y1="8" x2="24" y2="12"/>
    <line x1="16" y1="14" x2="24" y2="12"/>
    <line x1="16" y1="14" x2="24" y2="20"/>
    <line x1="16" y1="20" x2="24" y2="20"/>
    <line x1="16" y1="26" x2="24" y2="20"/>
  </g>

  <!-- Accent glow on main node -->
  <circle cx="16" cy="14" r="2" fill="#10b981" opacity="0.3"/>
</svg>
