<svg width="32" height="32" viewBox="4 4 17 18" fill="none" xmlns="http://www.w3.org/2000/svg">
<path d="M21.3781 19.5464C22.5348 17.2442 22.9042 14.6136 22.4278 12.0726C22.1747 9.80061 21.2219 7.37289 19.5052 5.90006C17.5 4.18349 15.3785 3.19129 12.7311 3.19564C10.8347 3.22263 8.98105 3.77453 7.36801 4.79245C3.56698 7.26513 1.25624 11.9906 2.6636 16.5648C3.40354 18.9614 5.66918 21.5595 8.50902 23.1008C11.3489 24.6421 14.7572 25.1388 17.7909 23.3333C19.3097 22.4376 20.5524 21.1257 21.3781 19.5464Z" fill="black"/>
<path d="M10.6139 12.5644C10.7319 12.0065 10.6639 11.4243 10.4208 10.9102C10.247 10.4194 9.90146 10.0115 9.45064 9.7651C8.95983 9.50524 8.39194 9.44062 7.85709 9.58377C7.45389 9.6998 7.08918 9.92548 6.80196 10.2367C6.45428 10.5984 6.23243 11.0664 6.17041 11.5691C6.1084 12.0718 6.20964 12.5814 6.45862 13.0197C6.74836 13.4878 7.78803 11.7967 8.47954 11.9598C9.17104 12.1229 9.51583 14.1422 10.0615 13.5805C10.335 13.301 10.5264 12.9491 10.6139 12.5644Z" fill="white"/>
<path d="M18.538 11.566C18.4233 11.007 18.129 10.5031 17.7017 10.1343C17.3471 9.75784 16.8686 9.52854 16.3583 9.49052C15.806 9.45684 15.2612 9.63363 14.8294 9.9866C14.5072 10.2601 14.2639 10.6178 14.1255 11.0215C13.9519 11.4965 13.9359 12.0165 14.0797 12.5017C14.2235 12.9869 14.5193 13.4106 14.9217 13.7078C15.3732 14.0154 15.649 12.0379 16.3461 11.8998C17.0431 11.7617 18.1637 13.4641 18.4384 12.7241C18.5769 12.3551 18.6114 11.9539 18.538 11.566Z" fill="white"/>
<path d="M6.88163 31.083C5.33609 32.1939 3.8242 33.43 3.16101 34.9339C2.41142 36.6448 3.60505 38.4261 5.49121 38.038C7.0837 37.7246 8.61034 36.5391 10.029 35.2887C11.1074 36.5632 12.2615 37.769 13.4847 38.8993C15.1676 40.4439 17.7779 38.5272 16.6545 36.433C15.8145 34.8854 14.8956 33.3839 13.9016 31.9345C15.1798 30.86 16.3621 29.672 17.4347 28.3844C18.7827 26.7122 17.1021 23.9863 15.0702 25.2224C13.6722 26.0938 12.318 27.0363 11.0128 28.0465C9.87627 26.6512 8.68877 25.3186 7.47779 24.0943C5.80647 22.4069 3.51606 24.5086 4.39291 26.5002C5.0974 28.0951 5.92981 29.6279 6.88163 31.083Z" fill="black"/>
</svg>
